<?xml version="1.0" encoding="utf-8"?>
<!-- Generator: Adobe Illustrator 16.0.0, SVG Export Plug-In . SVG Version: 6.00 Build 0)  -->
<!DOCTYPE svg PUBLIC "-//W3C//DTD SVG 1.1//EN" "http://www.w3.org/Graphics/SVG/1.1/DTD/svg11.dtd">
<svg version="1.1" id="Capa_1" xmlns="http://www.w3.org/2000/svg" xmlns:xlink="http://www.w3.org/1999/xlink" x="0px" y="0px"
	 width="406.266px" height="252.786px" viewBox="11.928 88.669 406.266 252.786"
	 enable-background="new 11.928 88.669 406.266 252.786" xml:space="preserve">
<g>
	<path id="Behance" fill="#FFFFFF" d="M378.815,124.442H277.02V99.156h101.804v25.286H378.815z M209.253,228.129
		c6.568,10.173,9.851,22.525,9.851,37.028c0,14.996-3.701,28.45-11.229,40.335c-4.79,7.864-10.736,14.507-17.881,19.854
		c-8.048,6.185-17.575,10.426-28.528,12.691c-10.987,2.27-22.881,3.417-35.691,3.417H11.928V88.669H134.01
		c30.772,0.5,52.587,9.416,65.47,26.925c7.73,10.738,11.561,23.624,11.561,38.601c0,15.455-3.877,27.82-11.682,37.215
		c-4.343,5.268-10.757,10.059-19.248,14.385C192.972,210.503,202.731,217.918,209.253,228.129z M70.228,188.33h53.49
		c10.992,0,19.879-2.089,26.723-6.266c6.84-4.169,10.251-11.583,10.251-22.226c0-11.758-4.519-19.563-13.578-23.319
		c-7.786-2.61-17.75-3.954-29.838-3.954H70.228V188.33z M165.843,261.544c0-13.13-5.367-22.208-16.078-27.079
		c-5.991-2.768-14.442-4.184-25.279-4.283H70.228v67.366h53.418c10.975,0,19.469-1.437,25.598-4.434
		C160.3,287.604,165.843,277.116,165.843,261.544z M416.585,220.421c1.229,8.271,1.786,20.27,1.561,35.953H286.309
		c0.728,18.198,7.009,30.924,18.923,38.207c7.186,4.566,15.897,6.796,26.098,6.796c10.758,0,19.523-2.719,26.272-8.309
		c3.678-2.963,6.922-7.146,9.726-12.423h48.322c-1.267,10.747-7.084,21.649-17.54,32.727
		c-16.201,17.607-38.921,26.435-68.098,26.435c-24.105,0-45.349-7.445-63.787-22.282c-18.378-14.891-27.608-39.038-27.608-72.535
		c0-31.413,8.286-55.456,24.915-72.191c16.689-16.767,38.229-25.111,64.779-25.111c15.736,0,29.922,2.813,42.577,8.467
		c12.617,5.661,23.044,14.57,31.255,26.814C409.575,193.75,414.355,206.218,416.585,220.421z M369.021,225.138
		c-0.887-12.583-5.087-22.106-12.651-28.615c-7.503-6.526-16.875-9.803-28.059-9.803c-12.172,0-21.569,3.503-28.248,10.386
		c-6.724,6.871-10.906,16.21-12.62,28.035h81.578V225.138z"/>
</g>
</svg>
