<?xml version="1.0" encoding="utf-8"?>
<!-- Generator: Adobe Illustrator 16.0.0, SVG Export Plug-In . SVG Version: 6.00 Build 0)  -->
<!DOCTYPE svg PUBLIC "-//W3C//DTD SVG 1.1//EN" "http://www.w3.org/Graphics/SVG/1.1/DTD/svg11.dtd">
<svg version="1.1" id="Capa_1" xmlns="http://www.w3.org/2000/svg" xmlns:xlink="http://www.w3.org/1999/xlink" x="0px" y="0px"
	 width="280.077px" height="267.63px" viewBox="75.02 81.245 280.077 267.63" enable-background="new 75.02 81.245 280.077 267.63"
	 xml:space="preserve">
<g>
	<path id="LinkedIn" fill="#FFFFFF" d="M355.097,245.328v103.547h-60.03v-96.612c0-24.27-8.683-40.833-30.41-40.833
		c-16.589,0-26.459,11.163-30.803,21.96c-1.583,3.861-1.99,9.233-1.99,14.637v100.849h-60.049c0,0,0.809-163.629,0-180.582h60.043
		v25.596c-0.122,0.191-0.28,0.398-0.395,0.583h0.395v-0.583c7.978-12.286,22.224-29.839,54.113-29.839
		C325.48,164.05,355.097,189.86,355.097,245.328z M109,81.245c-20.544,0-33.98,13.475-33.98,31.194
		c0,17.333,13.048,31.216,33.183,31.216h0.401c20.941,0,33.964-13.881,33.964-31.216C142.173,94.719,129.545,81.245,109,81.245z
		 M78.587,348.875h60.027V168.293H78.587V348.875z"/>
</g>
</svg>
