<?xml version="1.0" encoding="utf-8"?>
<!-- Generator: Adobe Illustrator 16.0.0, SVG Export Plug-In . SVG Version: 6.00 Build 0)  -->
<!DOCTYPE svg PUBLIC "-//W3C//DTD SVG 1.1//EN" "http://www.w3.org/Graphics/SVG/1.1/DTD/svg11.dtd">
<svg version="1.1" id="Capa_1" xmlns="http://www.w3.org/2000/svg" xmlns:xlink="http://www.w3.org/1999/xlink" x="0px" y="0px"
	 width="169.499px" height="267.63px" viewBox="130.31 81.245 169.499 267.63"
	 enable-background="new 130.31 81.245 169.499 267.63" xml:space="preserve">
<g>
	<path id="Tumblr" fill="#FFFFFF" d="M238.54,299.983c-4.498-2.643-8.628-7.185-10.274-11.566
		c-1.667-4.412-1.455-13.351-1.455-28.883v-68.626h62.409v-47.766h-62.405V81.245h-38.4c-1.713,13.786-4.868,25.175-9.445,34.107
		c-4.585,8.946-10.632,16.587-18.216,22.976c-7.546,6.375-19.846,11.289-30.444,14.677v37.903h36.663v93.853
		c0,12.255,1.3,21.604,3.883,28.038c2.596,6.43,7.232,12.522,13.929,18.255c6.697,5.672,14.783,10.098,24.269,13.207
		c9.475,3.075,16.76,4.614,29.1,4.614c10.854,0,20.96-1.095,30.331-3.234c9.359-2.195,19.808-5.977,31.325-11.338v-42.224
		c-13.515,8.817-27.108,13.205-40.777,13.205C251.337,305.286,244.537,303.517,238.54,299.983z"/>
</g>
</svg>
