<?xml version="1.0" encoding="utf-8"?>
<!-- Generator: Adobe Illustrator 16.0.0, SVG Export Plug-In . SVG Version: 6.00 Build 0)  -->
<!DOCTYPE svg PUBLIC "-//W3C//DTD SVG 1.1//EN" "http://www.w3.org/Graphics/SVG/1.1/DTD/svg11.dtd">
<svg version="1.1" id="Capa_1" xmlns="http://www.w3.org/2000/svg" xmlns:xlink="http://www.w3.org/1999/xlink" x="0px" y="0px"
	 width="388.491px" height="267.631px" viewBox="20.813 81.244 388.491 267.631"
	 enable-background="new 20.813 81.244 388.491 267.631" xml:space="preserve">
<g>
	<path id="Twitter__x28_alt_x29_" fill="#FFFFFF" d="M365.288,200.229c21.819-1.8,36.619-11.72,42.314-25.178
		c-7.87,4.835-32.303,10.106-45.796,5.086c-0.661-3.171-1.4-6.182-2.125-8.9c-10.281-37.753-45.484-68.168-82.369-64.494
		c2.984-1.205,6.012-2.326,9.029-3.333c4.06-1.454,27.881-5.33,24.129-13.738c-3.161-7.396-32.265,5.589-37.744,7.286
		c7.233-2.72,19.196-7.4,20.479-15.712c-11.082,1.52-21.962,6.76-30.368,14.378c3.035-3.267,5.337-7.249,5.826-11.533
		c-29.559,18.883-46.826,56.955-60.8,93.884c-10.972-10.634-20.696-19.007-29.421-23.657
		c-24.475-13.125-53.738-26.818-99.675-43.871c-1.41,15.198,7.517,35.407,33.238,48.846c-5.573-0.746-15.764,0.918-23.914,2.871
		c3.319,17.411,14.16,31.756,43.507,38.693c-13.412,0.885-20.344,3.937-26.626,10.516c6.109,12.109,21.015,26.361,47.829,23.435
		c-29.812,12.851-12.156,36.646,12.103,33.097c-41.382,42.742-106.625,39.602-144.09,3.852
		c97.818,133.29,310.453,78.827,342.14-49.557c23.741,0.202,37.697-8.224,46.351-17.513
		C395.626,207.005,375.801,204.606,365.288,200.229z"/>
</g>
</svg>
