<?xml version="1.0" encoding="utf-8"?>
<!-- Generator: Adobe Illustrator 16.0.0, SVG Export Plug-In . SVG Version: 6.00 Build 0)  -->
<!DOCTYPE svg PUBLIC "-//W3C//DTD SVG 1.1//EN" "http://www.w3.org/Graphics/SVG/1.1/DTD/svg11.dtd">
<svg version="1.1" id="Capa_1" xmlns="http://www.w3.org/2000/svg" xmlns:xlink="http://www.w3.org/1999/xlink" x="0px" y="0px"
	 width="100px" height="100px" viewBox="0 0 100 100" enable-background="new 0 0 100 100" xml:space="preserve">
<g>
	<path fill="#FFFFFF" d="M50,0C22.386,0,0,22.385,0,50c0,27.613,22.386,50,50,50c27.613,0,50-22.387,50-50C100,22.385,77.613,0,50,0
		z M62.167,69.229c-1.856,0.865-3.542,1.476-5.051,1.828c-1.513,0.345-3.142,0.521-4.892,0.521c-1.991,0-3.166-0.248-4.692-0.743
		c-1.53-0.502-2.833-1.216-3.914-2.131c-1.08-0.924-1.828-1.906-2.246-2.943c-0.417-1.038-0.626-2.545-0.626-4.521V46.105h-5.912
		v-6.112c1.709-0.546,3.692-1.34,4.91-2.368c1.223-1.028,2.198-2.262,2.937-3.704c0.739-1.44,1.248-3.276,1.524-5.5h6.192v9.981
		h10.064v7.702H50.397v11.066c0,2.504-0.035,3.945,0.235,4.657c0.265,0.707,0.933,1.439,1.657,1.867
		c0.966,0.567,2.064,0.854,3.304,0.854c2.205,0,4.396-0.707,6.576-2.13v6.81H62.167z"/>
</g>
</svg>
