<?xml version="1.0" encoding="utf-8"?>
<!-- Generator: Adobe Illustrator 16.0.0, SVG Export Plug-In . SVG Version: 6.00 Build 0)  -->
<!DOCTYPE svg PUBLIC "-//W3C//DTD SVG 1.1//EN" "http://www.w3.org/Graphics/SVG/1.1/DTD/svg11.dtd">
<svg version="1.1" id="Capa_1" xmlns="http://www.w3.org/2000/svg" xmlns:xlink="http://www.w3.org/1999/xlink" x="0px" y="0px"
	 width="100px" height="100px" viewBox="0 0 100 100" enable-background="new 0 0 100 100" xml:space="preserve">
<g>
	<path fill="#FFFFFF" d="M50,0C22.386,0,0,22.385,0,50c0,27.613,22.386,50,50,50c27.613,0,50-22.387,50-50C100,22.385,77.613,0,50,0
		z M72.523,51.087c-4.825,19.554-37.209,27.849-52.107,7.548c5.706,5.445,15.643,5.923,21.945-0.587
		c-3.695,0.541-6.384-3.083-1.843-5.04c-4.084,0.445-6.354-1.726-7.285-3.568c0.957-1.004,2.013-1.468,4.055-1.604
		c-4.47-1.056-6.121-3.24-6.626-5.892c1.241-0.298,2.793-0.553,3.642-0.438c-3.917-2.046-5.277-5.124-5.063-7.438
		c6.997,2.597,11.453,4.682,15.181,6.681c1.329,0.709,2.81,1.984,4.481,3.604c2.128-5.625,4.758-11.424,9.26-14.3
		c-0.075,0.652-0.425,1.26-0.888,1.756c1.281-1.159,2.938-1.958,4.625-2.188c-0.194,1.266-2.018,1.979-3.118,2.394
		c0.834-0.259,5.267-2.235,5.749-1.109c0.57,1.28-3.057,1.871-3.676,2.092c-0.459,0.154-0.92,0.325-1.375,0.508
		c5.619-0.559,10.979,4.074,12.545,9.823c0.111,0.414,0.224,0.873,0.324,1.354c2.055,0.766,5.776-0.037,6.975-0.773
		c-0.867,2.049-3.121,3.561-6.445,3.835c1.602,0.666,4.621,1.031,6.704,0.679C78.266,49.834,76.141,51.119,72.523,51.087z"/>
</g>
</svg>
