<?xml version="1.0" encoding="utf-8"?>
<!-- Generator: Adobe Illustrator 16.0.0, SVG Export Plug-In . SVG Version: 6.00 Build 0)  -->
<!DOCTYPE svg PUBLIC "-//W3C//DTD SVG 1.1//EN" "http://www.w3.org/Graphics/SVG/1.1/DTD/svg11.dtd">
<svg version="1.1" id="Capa_1" xmlns="http://www.w3.org/2000/svg" xmlns:xlink="http://www.w3.org/1999/xlink" x="0px" y="0px"
	 width="100px" height="100px" viewBox="0 0 100 100" enable-background="new 0 0 100 100" xml:space="preserve">
<g>
	<path fill="#FFFFFF" d="M50,0C22.386,0,0,22.385,0,50c0,27.613,22.386,50,50,50c27.613,0,50-22.387,50-50C100,22.385,77.613,0,50,0
		z M37.327,68.948h-9.951V39.011h9.951V68.948z M32.352,34.925h-0.066c-3.338,0-5.5-2.3-5.5-5.173c0-2.939,2.227-5.172,5.633-5.172
		c3.406,0,5.499,2.231,5.564,5.172C37.982,32.625,35.824,34.925,32.352,34.925z M73.215,68.948h-9.951V52.932
		c0-4.024-1.438-6.77-5.041-6.77c-2.75,0-4.387,1.849-5.106,3.642c-0.263,0.641-0.331,1.53-0.331,2.425v16.72H42.83
		c0,0,0.135-27.126,0-29.938h9.954v4.243c1.321-2.036,3.685-4.947,8.97-4.947c6.551,0,11.459,4.277,11.459,13.476v17.166H73.215z"/>
	<path fill="#FFFFFF" d="M52.785,43.35v-0.096c-0.021,0.031-0.047,0.066-0.066,0.096H52.785z"/>
</g>
</svg>
