<?xml version="1.0" encoding="utf-8"?>
<!-- Generator: Adobe Illustrator 16.0.0, SVG Export Plug-In . SVG Version: 6.00 Build 0)  -->
<!DOCTYPE svg PUBLIC "-//W3C//DTD SVG 1.1//EN" "http://www.w3.org/Graphics/SVG/1.1/DTD/svg11.dtd">
<svg version="1.1" id="Capa_1" xmlns="http://www.w3.org/2000/svg" xmlns:xlink="http://www.w3.org/1999/xlink" x="0px" y="0px"
	 width="100px" height="100px" viewBox="0 0 100 100" enable-background="new 0 0 100 100" xml:space="preserve">
<g>
	<path fill="#FFFFFF" d="M67.146,45.708c-1.842,0-3.266,0.531-4.276,1.574c-1.019,1.039-1.651,2.454-1.911,4.244h12.354
		c-0.136-1.905-0.771-3.349-1.918-4.333C70.26,46.205,68.84,45.708,67.146,45.708z"/>
	<path fill="#FFFFFF" d="M50,0C22.386,0,0,22.385,0,50c0,27.613,22.386,50,50,50s50-22.387,50-50C100,22.385,77.614,0,50,0z
		 M59.381,32.45h15.415v3.829h-0.001H59.381V32.45z M48.912,63.693c-0.726,1.189-1.626,2.196-2.708,3.006
		c-1.219,0.938-2.661,1.58-4.32,1.923c-1.664,0.344-3.464,0.517-5.404,0.517H19.242V30.864h18.485
		c4.66,0.076,7.962,1.425,9.913,4.077c1.17,1.626,1.75,3.576,1.75,5.844c0,2.342-0.587,4.214-1.769,5.636
		c-0.658,0.798-1.629,1.522-2.915,2.179c1.947,0.713,3.425,1.835,4.413,3.382c0.995,1.54,1.492,3.409,1.492,5.605
		C50.611,59.857,50.051,61.894,48.912,63.693z M80.75,56.256H60.788c0.11,2.755,1.062,4.683,2.864,5.785
		c1.089,0.691,2.408,1.029,3.953,1.029c1.629,0,2.957-0.413,3.979-1.26c0.557-0.447,1.048-1.082,1.473-1.881h7.316
		c-0.191,1.628-1.072,3.278-2.655,4.956c-2.454,2.666-5.894,4.003-10.312,4.003c-3.65,0-6.866-1.129-9.659-3.375
		c-2.783-2.255-4.181-5.911-4.181-10.982c0-4.756,1.254-8.397,3.773-10.932c2.526-2.539,5.788-3.803,9.809-3.803
		c2.381,0,4.531,0.427,6.447,1.282c1.91,0.856,3.489,2.207,4.731,4.061c1.126,1.634,1.849,3.521,2.187,5.671
		C80.7,52.065,80.784,53.881,80.75,56.256z"/>
	<path fill="#FFFFFF" d="M40.215,45.004c1.035-0.631,1.552-1.755,1.552-3.365c0-1.779-0.685-2.962-2.056-3.53
		c-1.179-0.396-2.688-0.601-4.518-0.601h-7.124v8.444h8.1C37.833,45.953,39.179,45.636,40.215,45.004z"/>
	<path fill="#FFFFFF" d="M40.112,52.94c-0.907-0.421-2.187-0.636-3.827-0.649h-8.216V62.49h8.088c1.662,0,2.948-0.217,3.876-0.671
		c1.675-0.835,2.514-2.422,2.514-4.779C42.547,55.051,41.734,53.676,40.112,52.94z"/>
</g>
</svg>
