<?xml version="1.0" encoding="utf-8"?>
<!-- Generator: Adobe Illustrator 16.0.0, SVG Export Plug-In . SVG Version: 6.00 Build 0)  -->
<!DOCTYPE svg PUBLIC "-//W3C//DTD SVG 1.1//EN" "http://www.w3.org/Graphics/SVG/1.1/DTD/svg11.dtd">
<svg version="1.1" id="Layer_1" xmlns="http://www.w3.org/2000/svg" xmlns:xlink="http://www.w3.org/1999/xlink" x="0px" y="0px"
	 width="358.999px" height="358.993px" viewBox="0 0 358.999 358.993" enable-background="new 0 0 358.999 358.993"
	 xml:space="preserve">
<path fill="#FFFFFF" d="M358.999,179.5C358.999,80.523,278.476,0,179.5,0C80.523,0,0,80.523,0,179.5
	c0,96.462,76.489,175.384,172,179.331c4.993,0.206,10.007,0.227,15,0C282.51,354.884,358.999,275.962,358.999,179.5z
	 M72.754,172.209C76.515,116.597,122.951,72.5,179.5,72.5s102.985,44.097,106.746,99.709H72.754z M172,187.209v99.024
	c-52.965-3.686-95.433-46.087-99.22-99.024H172z M187,343.82V301.5v-15v-99.291h114.5l-0.225-15
	C297.491,108.319,244.323,57.5,179.5,57.5S61.509,108.319,57.725,172.209c-0.289,4.885-0.279,10.135,0.025,15
	c3.837,61.212,53.01,110.32,114.25,114.054v42.558C84.762,339.886,15,267.691,15,179.5C15,88.794,88.794,15,179.5,15
	c90.705,0,164.499,73.794,164.499,164.5C343.999,267.691,274.236,339.886,187,343.82z"/>
</svg>
