<?xml version="1.0" encoding="utf-8"?>
<!-- Generator: Adobe Illustrator 16.0.0, SVG Export Plug-In . SVG Version: 6.00 Build 0)  -->
<!DOCTYPE svg PUBLIC "-//W3C//DTD SVG 1.1//EN" "http://www.w3.org/Graphics/SVG/1.1/DTD/svg11.dtd">
<svg version="1.1" id="Layer_1" xmlns="http://www.w3.org/2000/svg" xmlns:xlink="http://www.w3.org/1999/xlink" x="0px" y="0px"
	 width="196.399px" height="84.295px" viewBox="0 0 196.399 84.295" enable-background="new 0 0 196.399 84.295"
	 xml:space="preserve">
<g>
	<path fill-rule="evenodd" clip-rule="evenodd" fill="#FFFFFF" stroke="#FFFFFF" stroke-miterlimit="10" d="M36.521,41.712
		c-0.265,1.488-0.867,2.436-1.752,3.279c-4.385,4.176-9.031,8.055-13.986,11.512c-3,2.093-6.453,3.476-10.203,3.619
		c-3.762,0.143-6.535-1.715-8.474-4.808c-1.541-2.459-1.877-5.215-1.414-8.048C1.39,43,2.782,38.958,4.882,35.179
		c1.818-3.271,3.57-6.589,5.584-9.738c3.167-4.951,6.689-9.645,10.517-14.127c2.646-3.1,5.36-6.116,8.321-8.906
		c0.886-0.835,1.665-2.219,3.104-1.846c1.84,0.478,2.767,2.026,3.302,3.766c0.909,2.956,1.013,5.992,0.252,8.95
		c-1.405,5.466-3.972,10.335-7.985,14.395c-0.867,0.876-1.89,1.45-2.923,2.04c-0.636,0.362-1.334,0.673-1.874-0.164
		c-0.485-0.754-0.335-2.172,0.388-2.563c1.791-0.969,3.208-2.348,4.422-3.922c3.161-4.094,5.238-8.685,5.949-13.829
		c0.185-1.333-0.011-2.663-0.596-3.952c-0.647-1.427-0.929-1.61-2.09-0.556c-1.239,1.124-2.368,2.367-3.553,3.55
		c-6.28,6.265-11.52,13.349-16.14,20.88c-3.417,5.571-6.378,11.386-7.913,17.815c-0.394,1.649-0.453,3.314-0.247,4.976
		c0.374,3.015,3.15,5.221,5.674,5.129c2.174-0.079,4.315-0.21,6.275-1.176c2.773-1.367,5.588-2.683,7.969-4.726
		c2.056-1.765,4.536-2.933,6.592-4.716C31.887,44.746,33.857,42.996,36.521,41.712z"/>
	<path fill-rule="evenodd" clip-rule="evenodd" fill="#FFFFFF" stroke="#FFFFFF" stroke-miterlimit="10" d="M167.374,44.67
		c1.557-0.936,3.055-1.966,4.69-2.786c1.742-0.874,3.531-0.873,5.366-0.818c0.588,0.017,1.162,0.229,1.349,0.806
		c0.213,0.659-0.483,0.924-0.824,1.318c-0.308,0.357-0.692,0.63-1.218,0.677c-4.525,0.399-7.452,3.197-9.942,6.649
		c-1.728,2.395-2.985,5.042-4.134,7.743c-0.605,1.423-1.515,2.174-2.297,1.814c-1.011-0.465-1.526-2.181-0.917-3.372
		c0.793-1.55,1.733-3.025,2.507-4.583c1.206-2.428,2.165-4.975,1.901-7.728c-0.089-0.926,0.152-1.251,0.831-1.667
		c0.738-0.454,1.178,0.036,1.733,0.308C167.089,43.36,166.913,44.142,167.374,44.67z"/>
	<path fill-rule="evenodd" clip-rule="evenodd" fill="#FFFFFF" stroke="#FFFFFF" stroke-miterlimit="10" d="M50.165,24.502
		c0.048,1.166-0.697,1.8-1.334,2.504c-0.64,0.705-1.403,1.095-2.285,0.605c-0.916-0.508-0.441-1.411-0.342-2.133
		c0.083-0.607,0.3-1.236,0.614-1.762c0.466-0.779,1.214-1.332,2.159-1.188C50.124,22.704,49.878,23.848,50.165,24.502z"/>
	<path fill-rule="evenodd" clip-rule="evenodd" fill="#FFFFFF" stroke="#FFFFFF" stroke-miterlimit="10" d="M77.754,32.531
		c-0.056,0.98-0.555,1.416-1.552,1.345c-0.874-0.062-1.513-0.527-2.019-1.152c-0.638-0.788-0.57-2.302,0.045-2.886
		c0.578-0.549,1.625-0.316,2.491,0.647C77.235,31.058,77.879,31.612,77.754,32.531z"/>
	<path fill-rule="evenodd" clip-rule="evenodd" fill="#FFFFFF" stroke="#FFFFFF" stroke-miterlimit="10" d="M159.091,31.705
		c0.174,0.749-0.29,1.106-0.715,1.44c-0.475,0.373-0.889,0.135-1.246-0.249c-0.055-0.058-0.113-0.113-0.174-0.165
		c-0.939-0.784-1.404-2.091-0.984-2.906c0.275-0.534,0.717-0.838,1.366-0.665C158.242,29.401,159.045,30.6,159.091,31.705z"/>
	<path fill-rule="evenodd" clip-rule="evenodd" fill="#FFFFFF" stroke="#FFFFFF" stroke-miterlimit="10" d="M93.096,47.248
		c-0.063,0.14-0.096,0.311-0.197,0.415c-0.291,0.299-0.564,1.021-0.996,0.602c-0.332-0.321,0.197-0.776,0.634-0.979
		C92.707,47.028,92.894,47.015,93.096,47.248z"/>
	<path fill-rule="evenodd" clip-rule="evenodd" fill="#FFFFFF" stroke="#FFFFFF" stroke-miterlimit="10" d="M159.745,8.069
		c-0.174-0.902-0.991-0.564-1.581-0.569c-0.225-0.001-0.45,0.14-0.675,0.216c-2.71,0.913-5.443,1.762-8.125,2.753
		c-4.53,1.673-9.083,3.302-13.524,5.191c-6.566,2.793-12.857,6.164-19.068,9.671c-1.656,0.936-3.251,1.991-4.81,3.083
		c-0.921,0.645-0.75,1.716,0.213,2.868c0.816,0.976,1.442,0.701,2.113-0.145c0.96-1.211,2.302-1.916,3.633-2.623
		c1.611-0.856,3.27-1.607,4.835-2.569c3.241-1.992,6.614-3.749,10.154-5.166h0c0.028,0.203,0.055,0.406,0.083,0.61
		c-0.179,0.607-0.342,1.221-0.539,1.822c-2.314,7.061-5.934,13.486-9.642,19.874c-2.202,3.792-4.073,7.732-4.979,12.072
		c-0.217,1.038-0.356,2.054,0.001,3.05c0.337,0.94,1.058,1.911,2.009,1.774c1.008-0.145,1.328-1.24,1.2-2.307
		c-0.047-0.393,0.096-0.84-0.043-1.184c-0.633-1.562,0.081-2.94,0.567-4.32c0.394-1.12,1.012-2.16,1.49-3.254
		c1.687-3.864,4.351-7.167,6.176-10.975c2.196-4.58,4.253-9.22,6.399-13.821c0.592-1.269,0.606-2.479-0.741-3.353
		c-0.144-0.26-0.288-0.519-0.432-0.778l0,0c2.633-1.472,5.483-2.439,8.271-3.548c4.104-1.634,8.179-3.349,12.406-4.644
		c1.382-0.423,2.597-1.183,3.94-1.673C160.07,9.762,159.888,8.816,159.745,8.069z"/>
	<path fill-rule="evenodd" clip-rule="evenodd" fill="#FFFFFF" stroke="#FFFFFF" stroke-miterlimit="10" d="M158.907,52.668
		c-0.521-0.278-0.878,0.189-1.225,0.509c-1.147,1.061-2.201,2.269-4.007,2.579c0.153-0.83,0.082-1.512,0.257-2.238
		c0.712-2.941,1.637-5.803,2.782-8.601c0.596-1.455,0.184-2.619-1.01-3.119c-1.006-0.421-1.934,0.238-2.414,1.858
		c-0.252,0.852-0.574,1.635-1.066,2.377c-2.041,3.074-4.487,5.785-7.266,8.201c-0.395,0.343-0.666,0.937-1.453,0.717
		c0.086-1.737,0.408-3.449,0.724-5.166c0.434-2.351,0.774-4.727,0.685-7.115c-0.082-2.192-2.073-3.159-3.873-1.99
		c-0.465,0.302-0.903,0.645-1.353,0.968c-0.031,0.309-0.215,0.383-0.478,0.336c0.002,0.012,0.002,0.023,0.004,0.036v0l0,0
		c-0.02,0.008-0.041,0.017-0.061,0.026c-0.04,0.112-0.08,0.225-0.119,0.337c-0.065-0.069-0.131-0.137-0.197-0.206
		c0.105-0.044,0.21-0.088,0.316-0.131c0.008-0.022,0.015-0.044,0.023-0.065c0.012,0.003,0.022,0.001,0.034,0.003
		c-0.077-0.417-0.04-0.795,0.369-1.048c2.329-5.395,4.458-10.877,7.086-16.142c0.419-0.839,0.841-1.71,0.842-2.711
		c0.001-1.073-0.722-1.62-1.535-1.9c-0.772-0.267-0.958,0.548-1.306,1.074c-0.994,1.503-1.041,3.323-1.749,4.916
		c-2.711,6.103-5.262,12.283-8.182,18.284c-1.951,4.011-3.206,8.28-5.103,12.297c-0.498,1.054,0.251,2.651,1.316,2.925
		c1.399,0.359,1.493-0.804,1.805-1.685c0.187-0.526,0.37-1.056,0.601-1.563c2.042-4.504,4.202-8.93,8.147-12.159
		c0.132-0.428,0.619-0.811,0.828-0.613c0.334,0.314,0.222,0.877-0.185,1.25c-0.458,3.361-0.921,6.722-1.371,10.083
		c-0.137,1.021-0.252,2.061-0.003,3.07c0.417,1.688,1.783,2.188,3.172,1.119c2.514-1.936,4.672-4.245,6.731-6.648
		c0.143-0.392,0.305-0.884,0.816-0.632c0.212,0.104-0.044,0.498-0.298,0.665c-0.057,0.554-0.178,1.11-0.158,1.661
		c0.048,1.322-0.077,2.668,0.711,3.88c0.802,1.234,1.534,1.526,2.73,0.689c1.235-0.863,2.464-1.751,3.541-2.833
		c0.532-0.535,0.824-1.157,1.071-1.831C159.28,53.61,159.576,53.024,158.907,52.668z"/>
	<path fill-rule="evenodd" clip-rule="evenodd" fill="#FFFFFF" stroke="#FFFFFF" stroke-miterlimit="10" d="M192.772,61.315
		c-2.816,0.766-5.632,1.535-8.449,2.303c-0.207,0.119-0.422,0.341-0.591-0.045c1.604-3.636,3.035-7.33,4.061-11.18
		c0.636-2.386,1.02-4.815,1.497-7.229c0.196-0.996-0.134-1.837-1.035-2.137c-0.951-0.317-1.266,0.508-1.678,1.27
		c-1.392,2.575-2.871,5.106-4.402,7.602c-0.991,1.614-2.26,2.996-4.029,3.903c-0.228-0.94-0.065-1.708,0.246-2.463
		c0.934-2.266,1.476-4.656,2.23-6.978c0.148-0.456,0.164-0.745-0.181-1.028c-0.432-0.354-0.74-0.024-0.973,0.268
		c-1.743,2.185-3.417,4.443-4.162,7.172c-0.348,1.276-0.425,2.677-0.051,4.018c0.699,2.506,2.587,3.128,4.731,1.63
		c1.531-1.07,2.507-2.631,3.72-3.982c0.208-0.458,0.416-0.917,0.624-1.375c-0.161-0.725,0.491-1.221,0.532-1.889
		c0.042-0.15,0.042-0.339,0.136-0.442c0.226-0.246,0.179-0.99,0.575-0.731c0.396,0.258,0.191,0.848-0.321,1.119
		c0.039,0.682,0.285,1.411-0.436,1.921c-0.187,0.479-0.373,0.958-0.56,1.438c-1.132,3.639-2.934,6.985-4.549,10.414
		c-0.441,0.936-1.21,1.485-2.059,1.917c-4.002,2.041-7.086,5.074-9.69,8.683c-1.391,1.928-1.814,4.049-1.521,6.324
		c0.256,1.985,1.58,2.534,3.202,1.384c0.643-0.456,1.208-1.029,1.77-1.589c3.509-3.497,6.736-7.211,8.902-11.726
		c0.507-1.055,1.232-1.806,2.374-2.173c2.782-0.894,5.388-2.299,8.312-2.791c0.603-0.101,1.39-0.308,1.694-0.743
		c0.79-1.135,2.074-1.675,2.915-2.711C194.606,60.989,194.083,60.958,192.772,61.315z M169.309,79.743
		c0.25-3.417,7.833-9.375,7.833-9.375C177.225,70.868,169.059,83.16,169.309,79.743z"/>
	<path fill-rule="evenodd" clip-rule="evenodd" fill="#FFFFFF" stroke="#FFFFFF" stroke-miterlimit="10" d="M99.009,51.847
		c-0.518-0.213-0.865,0.244-1.225,0.555c-1.561,1.354-3.149,2.67-5.027,3.579c-0.871,0.421-1.88,0.942-2.586-0.007
		c-0.827-1.11,0.338-1.643,0.991-2.294c2.412-2.404,4.989-4.674,6.111-8.072c0.504-1.525,0.901-3.061,0.628-4.65
		c-0.191-1.113-0.81-2.214-1.894-2.522c-0.854-0.243-1.586,0.638-2.121,1.318c-1.868,2.377-3.602,4.852-5.064,7.505
		c-0.572,1.04-1.328,2.076-1.394,3.249c-0.144,2.547-2.086,3.339-3.864,4.322c-0.606,0.335-1.037,0.139-1.16-0.633
		c-0.087-0.554-0.207-1.073-0.042-1.644c0.384-1.33,0.198-2.703,0.159-4.051c-0.053-1.844-1.392-3.441-3.188-3.552
		c-0.869-0.054-0.908-0.425-1.256-0.978c-1.55-2.46-3.117-2.394-4.547,0.099c-0.238,0.413-0.428,0.854-0.664,1.268
		c-1.295,2.278-2.351,4.695-4.131,6.685c-1.579,1.764-3.033,3.647-5.288,4.907c0.546-4.219,2.678-7.48,5.1-10.614
		c0.55-0.71,1.029-1.501,1.395-2.321c0.415-0.932-0.397-2.035-1.556-2.776c-1.235-0.79-1.719-0.068-2.22,0.822
		c-0.466,0.829-1.005,1.634-1.35,2.512c-2.458,6.266-7.63,9.69-13.248,12.941c-0.567-2.711-0.152-4.729,2.078-6.401
		c2.28-1.709,4.198-3.845,5.955-6.13c4.316-5.613,6.724-12.015,8.25-18.847c0.215-0.964,0.08-1.747-0.203-2.526
		c-0.667-1.833-1.98-2.129-3.479-0.898c-0.865,0.709-1.617,1.521-2.241,2.449c-2.037,3.033-4.103,6.047-6.098,9.108
		c-3.174,4.87-6.079,9.87-6.912,15.768c-0.093,0.662-0.273,1.227-0.814,1.653c-2.247,1.768-4.475,3.56-6.736,5.309
		c-0.683,0.528-1.438,0.976-2.371,0.986c-0.564-2.926,0.335-5.566,1.513-8.076c1.005-2.142,1.775-4.662,4.726-5.048
		c2.48-2.161,4.751-4.385,5.449-7.876c0.362-1.809-0.245-2.692-1.534-3.595c-1.344-0.941-2.014,0.316-2.777,1.03
		c-2.004,1.875-3.243,4.313-4.739,6.563c-2.708,4.076-5.026,8.293-5.487,13.299c-0.171,1.861-0.056,3.652,0.714,5.383
		c0.934,2.097,2.935,2.732,4.861,1.458c0.792-0.523,1.459-1.24,2.267-1.733c1.461-0.892,2.427-2.504,4.282-3.029
		c0.107,0.758,0.22,1.382,0.278,2.01c0.115,1.262,0.777,2.222,1.705,2.991c0.845,0.701,1.559,0.921,2.66,0.009
		c2.168-1.796,4.591-3.285,7.006-4.969c0.046,0.859,0.018,1.501,0.125,2.119c0.442,2.545,2.497,3.43,4.509,1.898
		c1.196-0.91,2.323-1.901,3.386-2.995c2.239-2.307,3.708-5.125,5.517-7.717c0.12-0.507,0.368-0.878,0.933-0.909
		c0.001-0.017,0-0.034,0.001-0.051l0.045,0.042c0,0-0.045-0.042-0.045-0.042c0.011-0.001,0.019-0.006,0.029-0.008
		c-0.115-0.294-0.087-0.573,0.147-0.803c0.024-0.023,0.285,0.099,0.3,0.179c0.066,0.35-0.096,0.567-0.448,0.625
		c0.007,0.017,0.008,0.034,0.016,0.051c-0.018,0-0.029,0.008-0.047,0.009c-0.036,0.512,0.257,1.101-0.355,1.478
		c-0.698,2.11-2.013,3.95-2.622,6.111c-0.253,0.899-0.273,1.658,0.065,2.534c0.291,0.754,0.663,1.231,1.474,1.343
		c0.992,0.137,1.151-0.631,1.434-1.28c1.137-2.615,2.251-5.24,3.435-7.833c0.373-0.817,0.63-1.796,1.906-2.265
		c-0.128,1.41-0.245,2.635-0.349,3.862c-0.134,1.589-0.148,3.158,0.63,4.633c0.956,1.812,2.652,2.366,4.368,1.337
		c0.944-0.567,1.836-1.222,2.781-1.857c0.258,0.401,0.461,0.734,0.681,1.055c1.576,2.294,4.123,2.734,6.367,1.127
		c1.237-0.886,2.398-1.847,3.559-2.818c0.897-0.751,1.341-1.796,1.538-2.877C99.378,52.918,99.735,52.146,99.009,51.847z
		 M93.591,45.825c0.085-0.29,0.14-0.593,0.267-0.863c0.095-0.202,0.285-0.36,0.51-0.63c0.525,0.92-0.265,1.193-0.655,1.624
		L93.7,45.942c0.002,0.002,0.012,0.013,0.012,0.013c0.031,0.544-0.49,0.824-0.617,1.292c-0.186,0.012-0.373,0.024-0.559,0.037
		C92.577,46.573,92.881,46.053,93.591,45.825z M52.828,46.27c0.058-0.184,0.287-0.315,0.439-0.469
		c0.356-1.554,1.183-2.905,1.944-4.264c2.501-4.465,5.048-8.907,8.25-12.928c0.044-0.141,0.061-0.302,0.14-0.42
		c0.159-0.236,0.283-0.634,0.619-0.54c0.342,0.096,0.245,0.461,0.181,0.75c-0.068,0.308-0.224,0.549-0.496,0.711
		c0.021,2.141-1.072,3.926-1.948,5.746c-2.061,4.28-4.562,8.274-8.17,11.465c-0.079,0.131-0.138,0.28-0.239,0.391
		c-0.194,0.214-0.384,0.602-0.712,0.404C52.515,46.924,52.744,46.539,52.828,46.27z M47.475,36.868
		c0.438,0.375-2.688,6.063-3.313,5.813S47.038,36.493,47.475,36.868z"/>
</g>
</svg>
