<?xml version="1.0" encoding="utf-8"?>
<!-- Generator: Adobe Illustrator 16.0.0, SVG Export Plug-In . SVG Version: 6.00 Build 0)  -->
<!DOCTYPE svg PUBLIC "-//W3C//DTD SVG 1.1//EN" "http://www.w3.org/Graphics/SVG/1.1/DTD/svg11.dtd">
<svg version="1.1" id="Capa_1" xmlns="http://www.w3.org/2000/svg" xmlns:xlink="http://www.w3.org/1999/xlink" x="0px" y="0px"
	 width="100px" height="100px" viewBox="-477.75 293 100 100" enable-background="new -477.75 293 100 100" xml:space="preserve">
<g>
	<path fill="#FFFFFF" d="M-410.603,338.708c-1.843,0-3.266,0.531-4.277,1.574c-1.018,1.039-1.651,2.454-1.911,4.244h12.353
		c-0.135-1.905-0.771-3.348-1.917-4.333C-407.49,339.205-408.91,338.708-410.603,338.708z"/>
	<path fill="#FFFFFF" d="M-427.75,293c-27.614,0-50,22.385-50,50c0,27.613,22.386,50,50,50s50-22.387,50-50
		C-377.75,315.385-400.136,293-427.75,293z M-418.369,325.45h15.415v3.829h-0.001h-15.414V325.45z M-428.838,356.693
		c-0.726,1.19-1.626,2.197-2.708,3.006c-1.219,0.938-2.661,1.58-4.32,1.923c-1.664,0.344-3.464,0.517-5.404,0.517h-17.238v-38.275
		h18.485c4.66,0.076,7.962,1.425,9.913,4.077c1.17,1.626,1.75,3.577,1.75,5.844c0,2.342-0.587,4.214-1.769,5.636
		c-0.658,0.798-1.629,1.522-2.915,2.179c1.947,0.713,3.425,1.835,4.413,3.381c0.995,1.541,1.492,3.41,1.492,5.606
		C-427.138,352.857-427.699,354.894-428.838,356.693z M-397,349.256h-19.962c0.11,2.755,1.061,4.682,2.865,5.785
		c1.088,0.691,2.407,1.029,3.952,1.029c1.629,0,2.957-0.413,3.979-1.259c0.557-0.448,1.048-1.082,1.473-1.881h7.316
		c-0.191,1.628-1.072,3.278-2.655,4.956c-2.454,2.666-5.894,4.003-10.312,4.003c-3.65,0-6.866-1.129-9.659-3.375
		c-2.783-2.255-4.18-5.911-4.18-10.983c0-4.756,1.254-8.397,3.773-10.931c2.526-2.539,5.788-3.803,9.808-3.803
		c2.382,0,4.531,0.427,6.447,1.282c1.911,0.857,3.49,2.207,4.732,4.061c1.126,1.633,1.849,3.521,2.187,5.671
		C-397.05,345.065-396.966,346.881-397,349.256z"/>
	<path fill="#FFFFFF" d="M-437.535,338.004c1.035-0.631,1.552-1.755,1.552-3.365c0-1.78-0.685-2.962-2.056-3.531
		c-1.179-0.396-2.688-0.6-4.518-0.6h-7.124v8.444h8.1C-439.917,338.953-438.571,338.636-437.535,338.004z"/>
	<path fill="#FFFFFF" d="M-437.638,345.94c-0.907-0.42-2.187-0.635-3.827-0.649h-8.216v10.199h8.088
		c1.662,0,2.948-0.217,3.876-0.671c1.675-0.835,2.514-2.422,2.514-4.779C-435.203,348.051-436.016,346.676-437.638,345.94z"/>
</g>
</svg>
