<?xml version="1.0" encoding="utf-8"?>
<!-- Generator: Adobe Illustrator 16.0.0, SVG Export Plug-In . SVG Version: 6.00 Build 0)  -->
<!DOCTYPE svg PUBLIC "-//W3C//DTD SVG 1.1//EN" "http://www.w3.org/Graphics/SVG/1.1/DTD/svg11.dtd">
<svg version="1.1" id="Capa_1" xmlns="http://www.w3.org/2000/svg" xmlns:xlink="http://www.w3.org/1999/xlink" x="0px" y="0px"
	 width="100px" height="100px" viewBox="-237.75 293 100 100" enable-background="new -237.75 293 100 100" xml:space="preserve">
<g>
	<path fill="#FFFFFF" d="M-187.75,293c-27.614,0-50,22.385-50,50c0,27.613,22.386,50,50,50s50-22.387,50-50
		C-137.75,315.385-160.136,293-187.75,293z M-175.583,362.229c-1.857,0.865-3.542,1.475-5.051,1.828
		c-1.512,0.344-3.142,0.521-4.891,0.521c-1.991,0-3.166-0.248-4.693-0.743c-1.53-0.502-2.833-1.216-3.914-2.131
		c-1.08-0.924-1.828-1.906-2.246-2.943c-0.417-1.038-0.626-2.545-0.626-4.521v-15.135h-5.912v-6.112
		c1.709-0.546,3.692-1.34,4.91-2.368c1.223-1.028,2.198-2.262,2.937-3.704c0.739-1.44,1.248-3.276,1.524-5.5h6.192v9.981h10.064
		v7.703h-10.064v11.066c0,2.504-0.035,3.945,0.235,4.657c0.265,0.707,0.932,1.44,1.657,1.867c0.966,0.568,2.064,0.854,3.304,0.854
		c2.205,0,4.396-0.707,6.576-2.13V362.229z"/>
</g>
</svg>
