<?xml version="1.0" encoding="utf-8"?>
<!-- Generator: Adobe Illustrator 16.0.0, SVG Export Plug-In . SVG Version: 6.00 Build 0)  -->
<!DOCTYPE svg PUBLIC "-//W3C//DTD SVG 1.1//EN" "http://www.w3.org/Graphics/SVG/1.1/DTD/svg11.dtd">
<svg version="1.1" id="Capa_1" xmlns="http://www.w3.org/2000/svg" xmlns:xlink="http://www.w3.org/1999/xlink" x="0px" y="0px"
	 width="100px" height="100px" viewBox="-103.75 293 100 100" enable-background="new -103.75 293 100 100" xml:space="preserve">
<g>
	<path fill="#FFFFFF" d="M-53.75,293c-27.614,0-50,22.385-50,50c0,27.613,22.386,50,50,50s50-22.387,50-50
		C-3.75,315.385-26.136,293-53.75,293z M-31.226,344.087c-4.826,19.554-37.21,27.849-52.108,7.548
		c5.706,5.445,15.643,5.923,21.945-0.587c-3.695,0.541-6.384-3.083-1.843-5.04c-4.084,0.445-6.354-1.726-7.285-3.569
		c0.957-1.003,2.013-1.467,4.055-1.603c-4.47-1.056-6.121-3.24-6.626-5.892c1.241-0.298,2.793-0.552,3.642-0.438
		c-3.917-2.046-5.277-5.124-5.063-7.438c6.997,2.597,11.453,4.682,15.181,6.681c1.329,0.709,2.81,1.984,4.481,3.604
		c2.128-5.625,4.758-11.423,9.26-14.299c-0.075,0.652-0.425,1.259-0.887,1.756c1.28-1.16,2.937-1.958,4.625-2.189
		c-0.195,1.266-2.018,1.979-3.119,2.394c0.834-0.259,5.267-2.236,5.749-1.11c0.571,1.28-3.057,1.871-3.675,2.092
		c-0.459,0.154-0.921,0.325-1.375,0.508c5.618-0.559,10.979,4.074,12.545,9.823c0.11,0.414,0.223,0.873,0.323,1.355
		c2.056,0.765,5.777-0.038,6.975-0.774c-0.867,2.049-3.121,3.561-6.445,3.835c1.602,0.666,4.621,1.031,6.704,0.679
		C-25.484,342.834-27.61,344.119-31.226,344.087z"/>
</g>
</svg>
