<?xml version="1.0" encoding="utf-8"?>
<!-- Generator: Adobe Illustrator 16.0.0, SVG Export Plug-In . SVG Version: 6.00 Build 0)  -->
<!DOCTYPE svg PUBLIC "-//W3C//DTD SVG 1.1//EN" "http://www.w3.org/Graphics/SVG/1.1/DTD/svg11.dtd">
<svg version="1.1" id="Capa_1" xmlns="http://www.w3.org/2000/svg" xmlns:xlink="http://www.w3.org/1999/xlink" x="0px" y="0px"
	 width="100px" height="100px" viewBox="-355.084 293 100 100" enable-background="new -355.084 293 100 100" xml:space="preserve">
<g>
	<path fill="#FFFFFF" d="M-305.084,293c-27.614,0-50,22.385-50,50c0,27.613,22.386,50,50,50s50-22.387,50-50
		C-255.084,315.385-277.47,293-305.084,293z M-317.757,361.948h-9.951v-29.937h9.951V361.948z M-322.732,327.925h-0.066
		c-3.338,0-5.5-2.3-5.5-5.173c0-2.939,2.227-5.172,5.633-5.172s5.499,2.232,5.564,5.172
		C-317.102,325.625-319.26,327.925-322.732,327.925z M-281.869,361.948h-9.951v-16.016c0-4.025-1.439-6.77-5.042-6.77
		c-2.75,0-4.386,1.849-5.106,3.642c-0.263,0.64-0.331,1.53-0.331,2.425v16.719h-9.955c0,0,0.135-27.126,0-29.937h9.954v4.243
		c1.322-2.036,3.684-4.947,8.97-4.947c6.551,0,11.459,4.277,11.459,13.475V361.948z"/>
	<path fill="#FFFFFF" d="M-302.299,336.35v-0.096c-0.021,0.031-0.046,0.066-0.066,0.096H-302.299z"/>
</g>
</svg>
